<svg width="32" height="32" viewBox="0 0 32 32" fill="none" xmlns="http://www.w3.org/2000/svg">
<path d="M6.06179 27.6016C5.95074 27.4904 5.79663 27.4266 5.63954 27.4266C5.48244 27.4266 5.32833 27.4904 5.21722 27.6016C5.10612 27.7128 5.04221 27.8668 5.04221 28.0239C5.04221 28.181 5.10606 28.3351 5.21722 28.4462C5.32833 28.5573 5.48244 28.6212 5.63954 28.6212C5.79663 28.6212 5.95074 28.5573 6.06179 28.4462C6.17289 28.3351 6.23687 28.181 6.23687 28.0239C6.23687 27.8668 6.17295 27.7127 6.06179 27.6016Z" fill="#FFBB01"/>
<path d="M29.0264 11.3546C28.9153 11.2435 28.7617 11.1796 28.604 11.1796C28.4469 11.1796 28.2928 11.2435 28.1817 11.3546C28.0707 11.4657 28.0067 11.6198 28.0067 11.7769C28.0067 11.934 28.0706 12.0881 28.1817 12.1992C28.2928 12.3103 28.4469 12.3743 28.604 12.3743C28.7617 12.3743 28.9153 12.3103 29.0264 12.1992C29.138 12.0881 29.2019 11.934 29.2019 11.7769C29.2019 11.6198 29.138 11.4657 29.0264 11.3546Z" fill="#FFBB01"/>
<path d="M31.3881 0.602143C31.2761 0.490144 31.1241 0.427185 30.9657 0.427185L16.2717 0.427962C15.9418 0.427962 15.6744 0.695446 15.6744 1.02529V2.73348L10.0124 4.25064C9.69371 4.33605 9.5046 4.66357 9.59001 4.98218L12.5245 15.9338L9.98592 18.4723C9.66283 18.0006 9.12033 17.6903 8.5067 17.6903H2.77251C1.7844 17.6903 0.980576 18.4942 0.980576 19.4823V29.2185C0.980576 30.2066 1.7844 31.0105 2.77251 31.0105H8.50675C9.34618 31.0105 10.0523 30.4301 10.2459 29.6498L10.9561 30.2691C11.5044 30.7472 12.2069 31.0105 12.9343 31.0105H30.9658C31.2956 31.0105 31.5631 30.7431 31.5631 30.4132V1.02452C31.563 0.866103 31.5001 0.714142 31.3881 0.602143ZM9.10397 29.2186C9.10397 29.5479 8.836 29.8159 8.50664 29.8159H2.77245C2.44308 29.8159 2.17512 29.5479 2.17512 29.2186V19.4823C2.17512 19.1529 2.44308 18.885 2.77245 18.885H5.04224V25.7659C5.04224 26.0958 5.30972 26.3633 5.63957 26.3633C5.96942 26.3633 6.2369 26.0958 6.2369 25.7659V18.885H8.5067C8.83606 18.885 9.10403 19.1529 9.10403 19.4823V29.2186H9.10397ZM10.8985 5.24997L15.6744 3.97025V6.18365L15.2741 6.29094C15.121 6.33197 14.9906 6.43202 14.9114 6.56923C14.8322 6.70644 14.8107 6.86945 14.8517 7.02249C15.0813 7.87912 14.5711 8.76275 13.7145 8.9923C13.5612 9.0334 13.4306 9.13363 13.3515 9.27113C13.2723 9.40858 13.251 9.57189 13.2924 9.72505L15.6207 18.3468H14.4219L13.8041 15.9298C13.7844 15.8528 13.75 15.7819 13.7039 15.7203L10.8985 5.24997ZM15.6744 8.92295V13.9633L14.5849 9.92921C15.0401 9.69422 15.4125 9.34263 15.6744 8.92295ZM24.2559 29.8158H12.9342C12.4955 29.8158 12.0718 29.6571 11.7411 29.3687L10.2986 28.1107V19.8492L12.9064 17.2414L13.3794 19.0919C13.447 19.3563 13.6852 19.5413 13.9581 19.5413L25.7019 19.542C26.163 19.542 26.5381 19.9171 26.5381 20.3782C26.5381 20.8394 26.163 21.2145 25.7019 21.2145H19.6844C19.3545 21.2145 19.087 21.482 19.087 21.8118C19.087 22.1417 19.3545 22.4092 19.6844 22.4092H27.5715C28.0326 22.4092 28.4078 22.7843 28.4078 23.2454C28.4078 23.7066 28.0326 24.0817 27.5715 24.0817H19.6844C19.3545 24.0817 19.087 24.3492 19.087 24.679C19.087 25.0089 19.3545 25.2764 19.6844 25.2764H26.2934C26.7545 25.2764 27.1297 25.6515 27.1297 26.1126C27.1297 26.5738 26.7545 26.9489 26.2934 26.9489H19.6844C19.3545 26.9489 19.087 27.2164 19.087 27.5462C19.087 27.8761 19.3545 28.1435 19.6844 28.1435H24.2559C24.717 28.1435 25.0922 28.5187 25.0922 28.9798C25.0921 29.4407 24.717 29.8158 24.2559 29.8158ZM30.3684 29.8158H30.3684H26.1059C26.2217 29.5606 26.2868 29.2776 26.2868 28.9796C26.2868 28.6815 26.2217 28.3985 26.1059 28.1433H26.2934C27.4132 28.1433 28.3243 27.2323 28.3243 26.1124C28.3243 25.7858 28.2463 25.4772 28.1087 25.2035C28.9686 24.9673 29.6023 24.1791 29.6023 23.2453C29.6023 22.7923 29.4531 22.3735 29.2014 22.0354V14.4649C29.2014 14.135 28.934 13.8675 28.6041 13.8675C28.2743 13.8675 28.0068 14.135 28.0068 14.4649V21.262C27.8664 21.2312 27.7208 21.2145 27.5714 21.2145H27.5518C27.6676 20.9593 27.7327 20.6763 27.7327 20.3782C27.7327 19.2584 26.8216 18.3474 25.7018 18.3474H24.7416C25.7612 17.9101 26.4773 16.8967 26.4773 15.7188C26.4773 14.1425 25.1949 12.8601 23.6186 12.8601C22.0424 12.8601 20.76 14.1425 20.76 15.7188C20.76 16.8967 21.4761 17.9101 22.4956 18.3474H19.2304V6.98963C20.2975 6.75709 21.1395 5.91515 21.372 4.84802H25.8652C26.0976 5.91515 26.9396 6.75709 28.0067 6.98963V8.84673C28.0067 9.17658 28.2742 9.44406 28.604 9.44406C28.9339 9.44406 29.2014 9.17658 29.2014 8.84673V6.45634C29.2014 6.12649 28.9339 5.85901 28.604 5.85901C27.7172 5.85901 26.9958 5.13749 26.9958 4.25069C26.9958 3.92085 26.7283 3.65336 26.3985 3.65336H20.8388C20.5089 3.65336 20.2414 3.92085 20.2414 4.25069C20.2414 5.13755 19.52 5.85901 18.6332 5.85901C18.3033 5.85901 18.0358 6.12649 18.0358 6.45634V18.3473H16.8691V1.6225L30.3684 1.62185V29.8158ZM23.6187 17.3829C22.7012 17.3829 21.9547 16.6364 21.9547 15.7189C21.9547 14.8014 22.7012 14.0549 23.6187 14.0549C24.5362 14.0549 25.2827 14.8013 25.2827 15.7188C25.2827 16.6363 24.5363 17.3829 23.6187 17.3829Z" fill="#FFBB01"/>
</svg>
