<svg width="32" height="26" viewBox="0 0 32 26" fill="none" xmlns="http://www.w3.org/2000/svg">
<path d="M20.8899 4.02457C20.1484 4.02457 19.449 4.3163 18.9312 4.82491C18.4133 4.3163 17.7139 4.02457 16.9724 4.02457C15.4293 4.02457 14.1738 5.28 14.1738 6.82311C14.1738 8.23815 14.9722 9.67971 16.4827 10.9918C17.5894 11.9532 18.6832 12.5103 18.7292 12.5335C18.7927 12.5656 18.8619 12.5816 18.9312 12.5816C19.0004 12.5816 19.0696 12.5655 19.1331 12.5335C19.1791 12.5103 20.2729 11.9532 21.3796 10.9918C22.8901 9.67971 23.6885 8.23815 23.6885 6.82311C23.6885 5.28 22.433 4.02457 20.8899 4.02457ZM18.9312 11.6235C18.1097 11.159 15.0698 9.27365 15.0698 6.82311C15.0698 5.77404 15.9233 4.92054 16.9724 4.92054C17.6109 4.92054 18.2036 5.23909 18.558 5.77267C18.641 5.89769 18.7811 5.97283 18.9312 5.97283C19.0813 5.97283 19.2213 5.89769 19.3044 5.77267C19.6588 5.23909 20.2515 4.92054 20.89 4.92054C21.9391 4.92054 22.7926 5.77404 22.7926 6.82311C22.7925 9.27365 19.7526 11.159 18.9312 11.6235Z" fill="#FFBB01"/>
<path d="M28.0287 4.02457H25.6346C25.3872 4.02457 25.1866 4.22514 25.1866 4.47255C25.1866 4.71996 25.3872 4.92054 25.6346 4.92054H28.0287C28.2761 4.92054 28.4767 4.71996 28.4767 4.47255C28.4767 4.22514 28.2761 4.02457 28.0287 4.02457Z" fill="#FFBB01"/>
<path d="M27.071 8.81281H25.6346C25.3872 8.81281 25.1866 9.01338 25.1866 9.26079C25.1866 9.5082 25.3872 9.70878 25.6346 9.70878H27.071C27.3184 9.70878 27.519 9.5082 27.519 9.26079C27.519 9.01338 27.3184 8.81281 27.071 8.81281Z" fill="#FFBB01"/>
<path d="M28.0287 6.41882H25.6346C25.3872 6.41882 25.1866 6.6194 25.1866 6.86681C25.1866 7.11422 25.3872 7.3148 25.6346 7.3148H28.0287C28.2761 7.3148 28.4767 7.11422 28.4767 6.86681C28.4767 6.6194 28.2761 6.41882 28.0287 6.41882Z" fill="#FFBB01"/>
<path d="M9.83372 11.1452C10.0811 11.1452 10.2817 10.9446 10.2817 10.6972C10.2817 10.4498 10.0811 10.2492 9.83372 10.2492H8.87629C8.62888 10.2492 8.4283 10.4498 8.4283 10.6972C8.4283 10.9446 8.62888 11.1452 8.87629 11.1452H9.83372Z" fill="#FFBB01"/>
<path d="M5.04538 11.1452H6.96073C7.20814 11.1452 7.40872 10.9446 7.40872 10.6972C7.40872 10.4498 7.20814 10.2492 6.96073 10.2492H5.04538C4.79798 10.2492 4.5974 10.4498 4.5974 10.6972C4.5974 10.9446 4.79798 11.1452 5.04538 11.1452Z" fill="#FFBB01"/>
<path d="M5.04538 13.5394H9.83358C10.081 13.5394 10.2816 13.3389 10.2816 13.0914C10.2816 12.844 10.081 12.6435 9.83358 12.6435H5.04538C4.79798 12.6435 4.5974 12.844 4.5974 13.0914C4.5974 13.3389 4.79798 13.5394 5.04538 13.5394Z" fill="#FFBB01"/>
<path d="M10.2816 15.4854C10.2816 15.238 10.081 15.0374 9.83358 15.0374H5.04538C4.79798 15.0374 4.5974 15.238 4.5974 15.4854C4.5974 15.7328 4.79798 15.9334 5.04538 15.9334H9.83358C10.081 15.9334 10.2816 15.7328 10.2816 15.4854Z" fill="#FFBB01"/>
<path d="M8.87616 18.3274H16.5371C16.7846 18.3274 16.9851 18.1268 16.9851 17.8794C16.9851 17.632 16.7846 17.4314 16.5371 17.4314H8.87616C8.62876 17.4314 8.42818 17.632 8.42818 17.8794C8.42818 18.1268 8.62876 18.3274 8.87616 18.3274Z" fill="#FFBB01"/>
<path d="M5.04538 17.4314C4.79798 17.4314 4.5974 17.632 4.5974 17.8794C4.5974 18.1268 4.79798 18.3274 5.04538 18.3274H6.96073C7.20814 18.3274 7.40872 18.1268 7.40872 17.8794C7.40872 17.632 7.20814 17.4314 6.96073 17.4314H5.04538Z" fill="#FFBB01"/>
<path d="M27.071 11.207H25.6346C25.3872 11.207 25.1866 11.4076 25.1866 11.655C25.1866 11.9024 25.3872 12.103 25.6346 12.103H27.071C27.3184 12.103 27.519 11.9024 27.519 11.655C27.519 11.4076 27.3184 11.207 27.071 11.207Z" fill="#FFBB01"/>
<path d="M29.4651 0.194183H13.1854C12.1463 0.194183 11.3009 1.0395 11.3009 2.07859V14.049C11.3009 15.0881 12.1463 15.9334 13.1854 15.9334H23.5338L26.8945 19.2941C27.0722 19.4719 27.3082 19.5661 27.5489 19.5661C27.6684 19.5661 27.7892 19.5428 27.9045 19.495C28.2521 19.3511 28.4767 19.015 28.4767 18.6388V15.9334H29.4651C30.5042 15.9334 31.3495 15.0881 31.3495 14.049V2.07859C31.3495 1.0395 30.5042 0.194183 29.4651 0.194183ZM30.4536 14.049C30.4536 14.5941 30.0102 15.0375 29.4651 15.0375H28.0287C27.7813 15.0375 27.5807 15.238 27.5807 15.4854V18.6388C27.5807 18.6494 27.5807 18.6594 27.5617 18.6673C27.5426 18.675 27.5356 18.6681 27.528 18.6606L24.0361 15.1687C23.9521 15.0846 23.8382 15.0375 23.7194 15.0375H13.1854C12.6403 15.0375 12.1969 14.5941 12.1969 14.049V2.07859C12.1969 1.53354 12.6403 1.09016 13.1854 1.09016H29.4651C30.0101 1.09016 30.4535 1.53354 30.4535 2.07859V14.049H30.4536Z" fill="#FFBB01"/>
<path d="M20.3676 16.9527C20.1202 16.9527 19.9196 17.1533 19.9196 17.4007V20.2736C19.9196 20.8187 19.4762 21.262 18.9312 21.262H8.39721C8.27841 21.262 8.16444 21.3092 8.08046 21.3933L4.58855 24.8852C4.58109 24.8927 4.57392 24.8998 4.55492 24.8919C4.53587 24.884 4.53587 24.874 4.53587 24.8634V21.7101C4.53587 21.4627 4.33529 21.2621 4.08788 21.2621H2.6514C2.10635 21.2621 1.66296 20.8187 1.66296 20.2737V8.30323C1.66296 7.75818 2.10635 7.3148 2.6514 7.3148H9.83375C10.0812 7.3148 10.2817 7.11422 10.2817 6.86681C10.2817 6.6194 10.0812 6.41882 9.83375 6.41882H2.6514C1.61231 6.41882 0.766991 7.26414 0.766991 8.30323V20.2736C0.766991 21.3127 1.61231 22.158 2.6514 22.158H3.63984V24.8634C3.63984 25.2396 3.86443 25.5757 4.212 25.7196C4.32735 25.7674 4.44806 25.7906 4.56765 25.7906C4.80836 25.7906 5.0443 25.6964 5.22206 25.5187L8.5828 22.158H18.9312C19.9703 22.158 20.8156 21.3127 20.8156 20.2736V17.4007C20.8156 17.1533 20.615 16.9527 20.3676 16.9527Z" fill="#FFBB01"/>
</svg>
