<svg width="32" height="33" viewBox="0 0 32 33" fill="none" xmlns="http://www.w3.org/2000/svg">
<path d="M16.9438 20.9627C17.5081 20.9188 18.0226 20.631 18.3565 20.1718L23.4322 13.1549C23.5878 12.9396 23.5645 12.6426 23.3758 12.4539C23.1872 12.2658 22.8901 12.2425 22.6749 12.3975L15.6569 17.4748C15.1993 17.8077 14.9115 18.3221 14.8676 18.8865C14.8236 19.4508 15.028 20.0032 15.4275 20.4027C15.7913 20.767 16.2819 20.9687 16.792 20.9687C16.8424 20.9687 16.8928 20.9665 16.9438 20.9627ZM15.9485 18.971C15.9675 18.7233 16.0943 18.4972 16.2938 18.352L20.5748 15.2549L17.4788 19.5348C17.3325 19.7359 17.1064 19.8623 16.8587 19.8818C16.612 19.898 16.3697 19.8124 16.1935 19.6362C16.019 19.4611 15.929 19.2182 15.9485 18.971Z" fill="#FFBB01"/>
<path d="M29.0868 10.9746C29.0814 10.9632 29.0814 10.9513 29.0754 10.9399C29.0689 10.929 29.0586 10.9231 29.0516 10.9128C28.5035 9.97276 27.8552 9.09836 27.119 8.30581L28.2834 7.14192L29.05 7.90845L31.3495 5.60832L29.05 3.30873L26.7498 5.60832L27.5169 6.37539L26.3525 7.53928C25.5599 6.80311 24.6861 6.15421 23.7455 5.60615C23.7352 5.5991 23.7293 5.5888 23.7184 5.5823C23.707 5.57579 23.6951 5.57634 23.6837 5.57037C22.007 4.60435 20.1232 3.96088 18.1147 3.72507V3.07942H18.9279C19.6754 3.07942 20.2831 2.47173 20.2831 1.72418C20.2831 0.976621 19.6749 0.368927 18.9273 0.368927H14.0484C13.3009 0.368927 12.6932 0.976621 12.6932 1.72418C12.6932 2.47173 13.3009 3.07942 14.0484 3.07942H14.8616V3.70609C14.2761 3.76843 13.6917 3.86384 13.1139 3.99612C12.8222 4.06279 12.6395 4.3539 12.7067 4.64555C12.7734 4.9372 13.0645 5.12043 13.3562 5.05267C13.8549 4.93828 14.3585 4.85209 14.8632 4.79409L15.4449 4.74909C15.6227 4.73554 15.7864 4.72578 15.9458 4.71819V5.78992C15.9458 6.0897 16.1881 6.33202 16.4879 6.33202C16.7877 6.33202 17.03 6.0897 17.03 5.78992V4.72199C19.0688 4.81577 20.99 5.36329 22.6982 6.26426L22.1637 7.18962C22.014 7.44929 22.103 7.78051 22.3621 7.93013C22.4472 7.97946 22.5404 8.00277 22.6326 8.00277C22.8202 8.00277 23.0023 7.90574 23.1026 7.73172L23.6355 6.80853C25.3317 7.8846 26.7726 9.3255 27.8487 11.0217L26.9255 11.5546C26.6669 11.7042 26.578 12.0355 26.7281 12.2951C26.829 12.4691 27.0106 12.5662 27.1981 12.5662C27.2903 12.5662 27.3835 12.5429 27.4687 12.4935L28.394 11.959C29.3075 13.6916 29.8566 15.6442 29.9385 17.7156H28.8678C28.568 17.7156 28.3257 17.9579 28.3257 18.2577C28.3257 18.5575 28.568 18.7998 28.8678 18.7998H29.9385C29.8566 20.8711 29.3075 22.8238 28.394 24.5563L27.4687 24.0218C27.2095 23.8722 26.8778 23.96 26.7281 24.2202C26.5785 24.4799 26.6674 24.8111 26.9266 24.9607L27.8498 25.4936C26.7737 27.1898 25.3328 28.6307 23.6366 29.7068L23.1037 28.7836C22.9535 28.5234 22.6212 28.435 22.3632 28.5852C22.1035 28.7348 22.0146 29.0666 22.1648 29.3257L22.6993 30.2511C20.9911 31.1521 19.0699 31.6996 17.0311 31.7934V30.7265C17.0311 30.4267 16.7888 30.1844 16.489 30.1844C16.1892 30.1844 15.9469 30.4267 15.9469 30.7265V31.7977C15.0811 31.7679 14.2127 31.6595 13.3578 31.4632C13.0662 31.3933 12.775 31.5787 12.7084 31.8703C12.6411 32.162 12.8238 32.4531 13.1155 32.5198C14.1975 32.7691 15.3029 32.8949 16.3995 32.8949C16.4261 32.8949 16.4516 32.8933 16.4781 32.8927C16.4819 32.8927 16.4846 32.8949 16.4879 32.8949C16.4922 32.8949 16.496 32.8922 16.5004 32.8922C19.1062 32.8743 21.5511 32.1707 23.6664 30.9553C23.6832 30.9477 23.7011 30.9439 23.7173 30.9341C23.7282 30.9276 23.7341 30.9173 23.7444 30.9103C25.934 29.6342 27.7636 27.8068 29.0424 25.6188C29.0527 25.6042 29.0657 25.5928 29.0749 25.5766C29.0814 25.5652 29.0809 25.5532 29.0863 25.5419C30.3244 23.3951 31.0362 20.9091 31.0362 18.2582C31.0362 15.6073 30.3244 13.1213 29.0868 10.9746ZM29.0494 4.84179L29.8159 5.60832L29.0494 6.37539L28.2823 5.60832L29.0494 4.84179ZM15.9458 3.63291V1.99523H14.0484C13.8994 1.99523 13.7774 1.87325 13.7774 1.72418C13.7774 1.5751 13.8994 1.45313 14.0484 1.45313H18.9273C19.0764 1.45313 19.1984 1.5751 19.1984 1.72418C19.1984 1.87325 19.0764 1.99523 18.9273 1.99523H17.03V3.63291C16.8413 3.62532 16.6614 3.62152 16.4879 3.62152C16.4727 3.62152 16.4554 3.62261 16.4402 3.62261C16.4266 3.62261 16.4131 3.62152 16.3995 3.62152C16.3106 3.62152 16.2217 3.62749 16.1328 3.62911C16.0699 3.63074 16.0108 3.6302 15.9458 3.63291Z" fill="#FFBB01"/>
<path d="M11.6091 7.95844H8.8986C8.59882 7.95844 8.3565 8.20075 8.3565 8.50053C8.3565 8.80032 8.59882 9.04263 8.8986 9.04263H11.6091C11.9089 9.04263 12.1512 8.80032 12.1512 8.50053C12.1512 8.20075 11.9089 7.95844 11.6091 7.95844Z" fill="#FFBB01"/>
<path d="M11.609 11.753H6.18797C5.88819 11.753 5.64587 11.9953 5.64587 12.2951C5.64587 12.5949 5.88819 12.8372 6.18797 12.8372H11.609C11.9087 12.8372 12.1511 12.5949 12.1511 12.2951C12.1511 11.9953 11.9087 11.753 11.609 11.753Z" fill="#FFBB01"/>
<path d="M11.609 15.5476H3.47747C3.17769 15.5476 2.93537 15.7899 2.93537 16.0897C2.93537 16.3895 3.17769 16.6318 3.47747 16.6318H11.609C11.9087 16.6318 12.1511 16.3895 12.1511 16.0897C12.1511 15.7899 11.9087 15.5476 11.609 15.5476Z" fill="#FFBB01"/>
<path d="M11.609 19.3425H1.30909C1.00931 19.3425 0.766991 19.5848 0.766991 19.8846C0.766991 20.1844 1.00931 20.4267 1.30909 20.4267H11.609C11.9088 20.4267 12.1511 20.1844 12.1511 19.8846C12.1511 19.5848 11.9088 19.3425 11.609 19.3425Z" fill="#FFBB01"/>
<path d="M11.6089 23.1371H4.56159C4.26181 23.1371 4.01949 23.3794 4.01949 23.6792C4.01949 23.979 4.26181 24.2213 4.56159 24.2213H11.6089C11.9087 24.2213 12.151 23.979 12.151 23.6792C12.151 23.3794 11.9087 23.1371 11.6089 23.1371Z" fill="#FFBB01"/>
<path d="M11.609 26.9318H7.81429C7.5145 26.9318 7.27219 27.1741 7.27219 27.4739C7.27219 27.7736 7.5145 28.016 7.81429 28.016H11.609C11.9088 28.016 12.1511 27.7736 12.1511 27.4739C12.1511 27.1741 11.9088 26.9318 11.609 26.9318Z" fill="#FFBB01"/>
</svg>
