<svg width="120" height="21" viewBox="0 0 120 21" fill="none" xmlns="http://www.w3.org/2000/svg">
<g clip-path="url(#clip0)">
<path d="M1.11075 14.2678H2.38017V6.49256H1.11075V5.22314H5.10943V6.49256H3.84V14.2678H5.10943V15.5372H1.11075V14.2678ZM10.0539 14.2678H11.1646V15.5372H7.48328V14.2678H8.59402V6.49256H7.48328V5.22314H10.7838L15.4172 13.9821V6.49256H14.3064V5.22314H17.9877V6.49256H16.877V15.5372H14.6872L10.0539 6.79405V14.2678ZM20.2017 14.2678H21.4711V6.49256H20.2017V5.22314H24.2003V6.49256H22.9309V14.2678H24.2003V15.5372H20.2017V14.2678ZM32.2231 15.5372H27.5897V14.2678H29.1765V6.49256H26.9868V8.33322H25.7808V5.22314H34.0321V8.33322H32.8261V6.49256H30.6363V14.2678H32.2231V15.5372ZM36.0962 8.95207H40.9993V10.2215H36.0962V8.95207ZM50.8341 8.96794H49.517V7.57157L48.565 6.58777H46.1372L45.3121 7.42876V8.9838L46.0896 9.77719H49.3901L50.9927 11.4592V13.7917L49.3425 15.5372H45.3438L43.6936 13.7917V11.7924H45.0106V13.1888L45.9785 14.1726H48.7236L49.5329 13.3316V11.9193L48.7712 11.1418H45.4707L43.8522 9.44397V6.9686L45.5025 5.22314H49.1838L50.8341 6.9686V8.96794ZM59.3964 11.7924H60.6658V13.7917L59.0155 15.5372H55.0169L53.3666 13.7917V6.9686L55.0169 5.22314H59.0155L60.6658 6.9686V8.96794H59.3964V7.61918L58.3967 6.58777H55.6516L54.8265 7.42876V13.3316L55.6357 14.1726H58.3808L59.3964 13.1412V11.7924ZM62.881 5.22314H66.5623V6.49256H65.4516V9.74546H70.3389V6.49256H69.2281V5.22314H72.9094V6.49256H71.7987V14.2678H72.9094V15.5372H69.2281V14.2678H70.3389V11.0149H65.4516V14.2678H66.5623V15.5372H62.881V14.2678H63.9917V6.49256H62.881V5.22314ZM77.0985 15.5372L75.4483 13.7917V6.9686L77.0985 5.22314H81.5732L83.2235 6.9686V13.7917L81.5732 15.5372H77.0985ZM77.7174 14.1726H80.9385L81.7636 13.3316V7.42876L80.9544 6.58777H77.7332L76.9081 7.42876V13.3316L77.7174 14.1726ZM87.4185 15.5372L85.7683 13.7917V6.9686L87.4185 5.22314H91.8932L93.5435 6.9686V13.7917L91.8932 15.5372H87.4185ZM88.0374 14.1726H91.2585L92.0837 13.3316V7.42876L91.2744 6.58777H88.0532L87.2281 7.42876V13.3316L88.0374 14.1726ZM96.0886 5.22314H99.9286V6.49256H98.6592V14.2678H102.118V12.4271H103.324V15.5372H96.0886V14.2678H97.1994V6.49256H96.0886V5.22314ZM110.12 2.61157V3.91934H109.055L107.96 6.24595V13.4235L109.04 15.7501H110.12V17.0579H108.143L106.561 13.8645V5.80496L108.143 2.61157H110.12ZM113.301 17.0579V15.7501H114.38L115.46 13.4235V6.24595L114.365 3.91934H113.301V2.61157H115.277L116.859 5.80496V13.8645L115.277 17.0579H113.301ZM117.463 13.6331H119.05V15.0612L118.098 17.6H117.463V13.6331ZM117.463 7.28595H119.05V9.19008H117.463V7.28595Z" fill="#F26600" fill-opacity="0.99"/>
<path d="M10.2479 0.49585H100.165" stroke="#F26600" stroke-width="3"/>
<path d="M10.2479 20H100.165" stroke="#F26600" stroke-width="3"/>
</g>
<defs>
<clipPath id="clip0">
<rect width="120" height="20.4959" fill="white"/>
</clipPath>
</defs>
</svg>
